{
    "asset" : {
        "generator" : "Khronos glTF Blender I/O v1.6.16",
        "version" : "2.0"
    },
    "scene" : 0,
    "scenes" : [
        {
            "name" : "Scene",
            "nodes" : [
                0,
                1,
                2,
                3,
                4,
                5
            ]
        }
    ],
    "nodes" : [
        {
            "name" : "Lamp.003",
            "rotation" : [
                0.10021998733282089,
                0.8751680254936218,
                -0.02959285117685795,
                0.47239935398101807
            ],
            "translation" : [
                15.150407791137695,
                28.54892349243164,
                -2.526188850402832
            ]
        },
        {
            "name" : "Camera",
            "rotation" : [
                0.23791278898715973,
                -0.7060489654541016,
                0.6035551428794861,
                0.2839253842830658
            ],
            "translation" : [
                -42.32969284057617,
                25.976564407348633,
                -46.099578857421875
            ]
        },
        {
            "mesh" : 0,
            "name" : "Circle",
            "scale" : [
                0.15967093408107758,
                0.15967093408107758,
                0.15967093408107758
            ],
            "translation" : [
                -0.002096831798553467,
                3.6787712574005127,
                0
            ]
        },
        {
            "mesh" : 1,
            "name" : "Cube.006",
            "scale" : [
                0.7450281381607056,
                0.7640284299850464,
                0.7450281381607056
            ],
            "translation" : [
                3.7054716813145205e-05,
                1.1956260204315186,
                0.0007588319131173193
            ]
        },
        {
            "mesh" : 2,
            "name" : "Sphere",
            "scale" : [
                12.732240676879883,
                12.732240676879883,
                12.732240676879883
            ]
        },
        {
            "name" : "Lamp",
            "rotation" : [
                -0.40122756361961365,
                0.7370452880859375,
                0.26097917556762695,
                0.47714853286743164
            ],
            "translation" : [
                -11.06505298614502,
                3.6297876834869385,
                0.005345016717910767
            ]
        }
    ],
    "materials" : [
        {
            "doubleSided" : true,
            "name" : "White",
            "pbrMetallicRoughness" : {}
        },
        {
            "doubleSided" : true,
            "name" : "Black",
            "pbrMetallicRoughness" : {}
        },
        {
            "doubleSided" : true,
            "name" : "Tan",
            "pbrMetallicRoughness" : {}
        },
        {
            "doubleSided" : true,
            "name" : "JetBlack",
            "pbrMetallicRoughness" : {}
        },
        {
            "doubleSided" : true,
            "name" : "Material.002",
            "pbrMetallicRoughness" : {}
        },
        {
            "doubleSided" : true,
            "name" : "Yellow",
            "pbrMetallicRoughness" : {}
        },
        {
            "doubleSided" : true,
            "name" : "Red",
            "pbrMetallicRoughness" : {}
        },
        {
            "doubleSided" : true,
            "name" : "Orange",
            "pbrMetallicRoughness" : {}
        }
    ],
    "meshes" : [
        {
            "name" : "Circle",
            "primitives" : [
                {
                    "attributes" : {
                        "POSITION" : 0,
                        "NORMAL" : 1
                    },
                    "indices" : 2,
                    "material" : 0
                },
                {
                    "attributes" : {
                        "POSITION" : 3,
                        "NORMAL" : 4
                    },
                    "indices" : 5,
                    "material" : 1
                },
                {
                    "attributes" : {
                        "POSITION" : 6,
                        "NORMAL" : 7
                    },
                    "indices" : 8,
                    "material" : 2
                },
                {
                    "attributes" : {
                        "POSITION" : 9,
                        "NORMAL" : 10
                    },
                    "indices" : 11,
                    "material" : 3
                }
            ]
        },
        {
            "name" : "Cube.007",
            "primitives" : [
                {
                    "attributes" : {
                        "POSITION" : 12,
                        "NORMAL" : 13
                    },
                    "indices" : 14,
                    "material" : 4
                }
            ]
        },
        {
            "name" : "Sphere.002",
            "primitives" : [
                {
                    "attributes" : {
                        "POSITION" : 15,
                        "NORMAL" : 16,
                        "TEXCOORD_0" : 17,
                        "TEXCOORD_1" : 18
                    },
                    "indices" : 19,
                    "material" : 5
                },
                {
                    "attributes" : {
                        "POSITION" : 20,
                        "NORMAL" : 21,
                        "TEXCOORD_0" : 22,
                        "TEXCOORD_1" : 23
                    },
                    "indices" : 24,
                    "material" : 1
                },
                {
                    "attributes" : {
                        "POSITION" : 25,
                        "NORMAL" : 26,
                        "TEXCOORD_0" : 27,
                        "TEXCOORD_1" : 28
                    },
                    "indices" : 29,
                    "material" : 6
                },
                {
                    "attributes" : {
                        "POSITION" : 30,
                        "NORMAL" : 31,
                        "TEXCOORD_0" : 32,
                        "TEXCOORD_1" : 33
                    },
                    "indices" : 34,
                    "material" : 7
                }
            ]
        }
    ],
    "accessors" : [
        {
            "bufferView" : 0,
            "componentType" : 5126,
            "count" : 3848,
            "max" : [
                4.726792812347412,
                4.427640914916992,
                4.538944721221924
            ],
            "min" : [
                -4.778312683105469,
                -1.0672645568847656,
                -4.538944721221924
            ],
            "type" : "VEC3"
        },
        {
            "bufferView" : 1,
            "componentType" : 5126,
            "count" : 3848,
            "type" : "VEC3"
        },
        {
            "bufferView" : 2,
            "componentType" : 5123,
            "count" : 6384,
            "type" : "SCALAR"
        },
        {
            "bufferView" : 3,
            "componentType" : 5126,
            "count" : 3788,
            "max" : [
                4.757961750030518,
                0.04442644119262695,
                4.913424015045166
            ],
            "min" : [
                -4.7316975593566895,
                -10.88254451751709,
                -4.913424015045166
            ],
            "type" : "VEC3"
        },
        {
            "bufferView" : 4,
            "componentType" : 5126,
            "count" : 3788,
            "type" : "VEC3"
        },
        {
            "bufferView" : 5,
            "componentType" : 5123,
            "count" : 6096,
            "type" : "SCALAR"
        },
        {
            "bufferView" : 6,
            "componentType" : 5126,
            "count" : 2018,
            "max" : [
                4.679386615753174,
                -10.757061004638672,
                4.670774936676025
            ],
            "min" : [
                -4.652657985687256,
                -20.336658477783203,
                -4.661269664764404
            ],
            "type" : "VEC3"
        },
        {
            "bufferView" : 7,
            "componentType" : 5126,
            "count" : 2018,
            "type" : "VEC3"
        },
        {
            "bufferView" : 8,
            "componentType" : 5123,
            "count" : 12096,
            "type" : "SCALAR"
        },
        {
            "bufferView" : 9,
            "componentType" : 5126,
            "count" : 3090,
            "max" : [
                4.813539028167725,
                -10.661556243896484,
                4.804927349090576
            ],
            "min" : [
                -4.786810398101807,
                -20.378585815429688,
                -4.795422077178955
            ],
            "type" : "VEC3"
        },
        {
            "bufferView" : 10,
            "componentType" : 5126,
            "count" : 3090,
            "type" : "VEC3"
        },
        {
            "bufferView" : 11,
            "componentType" : 5123,
            "count" : 15072,
            "type" : "SCALAR"
        },
        {
            "bufferView" : 12,
            "componentType" : 5126,
            "count" : 1640,
            "max" : [
                1.0019999742507935,
                1.0085113048553467,
                0.3333333134651184
            ],
            "min" : [
                -1,
                -1,
                -0.35027816891670227
            ],
            "type" : "VEC3"
        },
        {
            "bufferView" : 13,
            "componentType" : 5126,
            "count" : 1640,
            "type" : "VEC3"
        },
        {
            "bufferView" : 14,
            "componentType" : 5123,
            "count" : 3456,
            "type" : "SCALAR"
        },
        {
            "bufferView" : 15,
            "componentType" : 5126,
            "count" : 240,
            "max" : [
                0.880506157875061,
                2.4126555919647217,
                0.8805493116378784
            ],
            "min" : [
                -0.8805025815963745,
                1.411363959312439,
                -0.8804593682289124
            ],
            "type" : "VEC3"
        },
        {
            "bufferView" : 16,
            "componentType" : 5126,
            "count" : 240,
            "type" : "VEC3"
        },
        {
            "bufferView" : 17,
            "componentType" : 5126,
            "count" : 240,
            "type" : "VEC2"
        },
        {
            "bufferView" : 18,
            "componentType" : 5126,
            "count" : 240,
            "type" : "VEC2"
        },
        {
            "bufferView" : 19,
            "componentType" : 5123,
            "count" : 816,
            "type" : "SCALAR"
        },
        {
            "bufferView" : 20,
            "componentType" : 5126,
            "count" : 285,
            "max" : [
                0.6226124167442322,
                2.6381008625030518,
                0.6226556897163391
            ],
            "min" : [
                -0.6226088404655457,
                0.33612722158432007,
                -0.6225655674934387
            ],
            "type" : "VEC3"
        },
        {
            "bufferView" : 21,
            "componentType" : 5126,
            "count" : 285,
            "type" : "VEC3"
        },
        {
            "bufferView" : 22,
            "componentType" : 5126,
            "count" : 285,
            "type" : "VEC2"
        },
        {
            "bufferView" : 23,
            "componentType" : 5126,
            "count" : 285,
            "type" : "VEC2"
        },
        {
            "bufferView" : 24,
            "componentType" : 5123,
            "count" : 792,
            "type" : "SCALAR"
        },
        {
            "bufferView" : 25,
            "componentType" : 5126,
            "count" : 288,
            "max" : [
                0.7625409960746765,
                2.6118738651275635,
                0.7625840902328491
            ],
            "min" : [
                -0.76253741979599,
                0.6301831007003784,
                -0.7624942064285278
            ],
            "type" : "VEC3"
        },
        {
            "bufferView" : 26,
            "componentType" : 5126,
            "count" : 288,
            "type" : "VEC3"
        },
        {
            "bufferView" : 27,
            "componentType" : 5126,
            "count" : 288,
            "type" : "VEC2"
        },
        {
            "bufferView" : 28,
            "componentType" : 5126,
            "count" : 288,
            "type" : "VEC2"
        },
        {
            "bufferView" : 29,
            "componentType" : 5123,
            "count" : 720,
            "type" : "SCALAR"
        },
        {
            "bufferView" : 30,
            "componentType" : 5126,
            "count" : 312,
            "max" : [
                0.8505037426948547,
                2.534978151321411,
                0.8505469560623169
            ],
            "min" : [
                -0.8505001664161682,
                0.8276216983795166,
                -0.8504568934440613
            ],
            "type" : "VEC3"
        },
        {
            "bufferView" : 31,
            "componentType" : 5126,
            "count" : 312,
            "type" : "VEC3"
        },
        {
            "bufferView" : 32,
            "componentType" : 5126,
            "count" : 312,
            "type" : "VEC2"
        },
        {
            "bufferView" : 33,
            "componentType" : 5126,
            "count" : 312,
            "type" : "VEC2"
        },
        {
            "bufferView" : 34,
            "componentType" : 5123,
            "count" : 672,
            "type" : "SCALAR"
        }
    ],
    "bufferViews" : [
        {
            "buffer" : 0,
            "byteLength" : 46176,
            "byteOffset" : 0
        },
        {
            "buffer" : 0,
            "byteLength" : 46176,
            "byteOffset" : 46176
        },
        {
            "buffer" : 0,
            "byteLength" : 12768,
            "byteOffset" : 92352
        },
        {
            "buffer" : 0,
            "byteLength" : 45456,
            "byteOffset" : 105120
        },
        {
            "buffer" : 0,
            "byteLength" : 45456,
            "byteOffset" : 150576
        },
        {
            "buffer" : 0,
            "byteLength" : 12192,
            "byteOffset" : 196032
        },
        {
            "buffer" : 0,
            "byteLength" : 24216,
            "byteOffset" : 208224
        },
        {
            "buffer" : 0,
            "byteLength" : 24216,
            "byteOffset" : 232440
        },
        {
            "buffer" : 0,
            "byteLength" : 24192,
            "byteOffset" : 256656
        },
        {
            "buffer" : 0,
            "byteLength" : 37080,
            "byteOffset" : 280848
        },
        {
            "buffer" : 0,
            "byteLength" : 37080,
            "byteOffset" : 317928
        },
        {
            "buffer" : 0,
            "byteLength" : 30144,
            "byteOffset" : 355008
        },
        {
            "buffer" : 0,
            "byteLength" : 19680,
            "byteOffset" : 385152
        },
        {
            "buffer" : 0,
            "byteLength" : 19680,
            "byteOffset" : 404832
        },
        {
            "buffer" : 0,
            "byteLength" : 6912,
            "byteOffset" : 424512
        },
        {
            "buffer" : 0,
            "byteLength" : 2880,
            "byteOffset" : 431424
        },
        {
            "buffer" : 0,
            "byteLength" : 2880,
            "byteOffset" : 434304
        },
        {
            "buffer" : 0,
            "byteLength" : 1920,
            "byteOffset" : 437184
        },
        {
            "buffer" : 0,
            "byteLength" : 1920,
            "byteOffset" : 439104
        },
        {
            "buffer" : 0,
            "byteLength" : 1632,
            "byteOffset" : 441024
        },
        {
            "buffer" : 0,
            "byteLength" : 3420,
            "byteOffset" : 442656
        },
        {
            "buffer" : 0,
            "byteLength" : 3420,
            "byteOffset" : 446076
        },
        {
            "buffer" : 0,
            "byteLength" : 2280,
            "byteOffset" : 449496
        },
        {
            "buffer" : 0,
            "byteLength" : 2280,
            "byteOffset" : 451776
        },
        {
            "buffer" : 0,
            "byteLength" : 1584,
            "byteOffset" : 454056
        },
        {
            "buffer" : 0,
            "byteLength" : 3456,
            "byteOffset" : 455640
        },
        {
            "buffer" : 0,
            "byteLength" : 3456,
            "byteOffset" : 459096
        },
        {
            "buffer" : 0,
            "byteLength" : 2304,
            "byteOffset" : 462552
        },
        {
            "buffer" : 0,
            "byteLength" : 2304,
            "byteOffset" : 464856
        },
        {
            "buffer" : 0,
            "byteLength" : 1440,
            "byteOffset" : 467160
        },
        {
            "buffer" : 0,
            "byteLength" : 3744,
            "byteOffset" : 468600
        },
        {
            "buffer" : 0,
            "byteLength" : 3744,
            "byteOffset" : 472344
        },
        {
            "buffer" : 0,
            "byteLength" : 2496,
            "byteOffset" : 476088
        },
        {
            "buffer" : 0,
            "byteLength" : 2496,
            "byteOffset" : 478584
        },
        {
            "buffer" : 0,
            "byteLength" : 1344,
            "byteOffset" : 481080
        }
    ],
    "buffers" : [
        {
            "byteLength" : 482424,
            "uri" : "data:application/octet-stream;base64,"
        }
    ]
}
