{
    "asset" : {
        "generator" : "Khronos glTF Blender I/O v1.6.16",
        "version" : "2.0"
    },
    "extensionsUsed" : [
        "KHR_materials_transmission"
    ],
    "scene" : 0,
    "scenes" : [
        {
            "name" : "Scene",
            "nodes" : [
                0
            ]
        }
    ],
    "nodes" : [
        {
            "mesh" : 0,
            "name" : "Sphere.001",
            "scale" : [
                1.3348339796066284,
                1.3348339796066284,
                1.3348339796066284
            ],
            "translation" : [
                9.238250732421875,
                8.887700080871582,
                -2.4081873893737793
            ]
        }
    ],
    "materials" : [
        {
            "doubleSided" : true,
            "extensions" : {
                "KHR_materials_transmission" : {
                    "transmissionFactor" : 0.4430379867553711
                }
            },
            "name" : "Material.002",
            "pbrMetallicRoughness" : {
                "baseColorFactor" : [
                    1,
                    0.9576399922370911,
                    0.9893096089363098,
                    1
                ],
                "metallicFactor" : 0.4999999701976776,
                "roughnessFactor" : 0.560207724571228
            }
        }
    ],
    "meshes" : [
        {
            "name" : "Sphere.001",
            "primitives" : [
                {
                    "attributes" : {
                        "POSITION" : 0,
                        "NORMAL" : 1,
                        "TEXCOORD_0" : 2
                    },
                    "indices" : 3,
                    "material" : 0
                }
            ]
        }
    ],
    "accessors" : [
        {
            "bufferView" : 0,
            "componentType" : 5126,
            "count" : 1185,
            "max" : [
                2.519606828689575,
                1,
                2.519606828689575
            ],
            "min" : [
                -2.519606828689575,
                -7.028095245361328,
                -2.519606828689575
            ],
            "type" : "VEC3"
        },
        {
            "bufferView" : 1,
            "componentType" : 5126,
            "count" : 1185,
            "type" : "VEC3"
        },
        {
            "bufferView" : 2,
            "componentType" : 5126,
            "count" : 1185,
            "type" : "VEC2"
        },
        {
            "bufferView" : 3,
            "componentType" : 5123,
            "count" : 6324,
            "type" : "SCALAR"
        }
    ],
    "bufferViews" : [
        {
            "buffer" : 0,
            "byteLength" : 14220,
            "byteOffset" : 0
        },
        {
            "buffer" : 0,
            "byteLength" : 14220,
            "byteOffset" : 14220
        },
        {
            "buffer" : 0,
            "byteLength" : 9480,
            "byteOffset" : 28440
        },
        {
            "buffer" : 0,
            "byteLength" : 12648,
            "byteOffset" : 37920
        }
    ],
    "buffers" : [
        {
            "byteLength" : 50568,
            "uri" : "data:application/octet-stream;base64,"
        }
    ]
}
