{
    "asset" : {
        "generator" : "Khronos glTF Blender I/O v1.6.16",
        "version" : "2.0"
    },
    "scene" : 0,
    "scenes" : [
        {
            "name" : "Scene",
            "nodes" : [
                0,
                1,
                2
            ]
        }
    ],
    "nodes" : [
        {
            "name" : "Light",
            "rotation" : [
                0.16907575726509094,
                0.7558803558349609,
                -0.27217137813568115,
                0.570947527885437
            ],
            "translation" : [
                4.076245307922363,
                5.903861999511719,
                -1.0054539442062378
            ]
        },
        {
            "name" : "Camera",
            "rotation" : [
                0.483536034822464,
                0.33687159419059753,
                -0.20870360732078552,
                0.7804827094078064
            ],
            "translation" : [
                7.358891487121582,
                4.958309173583984,
                6.925790786743164
            ]
        },
        {
            "mesh" : 0,
            "name" : "deagle",
            "rotation" : [
                -0.001449628733098507,
                0.7071053385734558,
                0.7071052193641663,
                -0.0014496285002678633
            ],
            "translation" : [
                0,
                0,
                7.73431396484375
            ]
        }
    ],
    "materials" : [
        {
            "doubleSided" : true,
            "name" : "Material__106",
            "pbrMetallicRoughness" : {
                "baseColorFactor" : [
                    0.800000011920929,
                    0.800000011920929,
                    0.800000011920929,
                    1
                ],
                "metallicFactor" : 0,
                "roughnessFactor" : 0.5
            }
        }
    ],
    "meshes" : [
        {
            "name" : "deagle",
            "primitives" : [
                {
                    "attributes" : {
                        "POSITION" : 0,
                        "NORMAL" : 1,
                        "TEXCOORD_0" : 2
                    },
                    "indices" : 3,
                    "material" : 0
                }
            ]
        }
    ],
    "accessors" : [
        {
            "bufferView" : 0,
            "componentType" : 5126,
            "count" : 9983,
            "max" : [
                -0.5432999730110168,
                -3.14520001411438,
                4.473599910736084
            ],
            "min" : [
                -1.8406000137329102,
                -14.508399963378906,
                -1.5898000001907349
            ],
            "type" : "VEC3"
        },
        {
            "bufferView" : 1,
            "componentType" : 5126,
            "count" : 9983,
            "type" : "VEC3"
        },
        {
            "bufferView" : 2,
            "componentType" : 5126,
            "count" : 9983,
            "type" : "VEC2"
        },
        {
            "bufferView" : 3,
            "componentType" : 5123,
            "count" : 26043,
            "type" : "SCALAR"
        }
    ],
    "bufferViews" : [
        {
            "buffer" : 0,
            "byteLength" : 119796,
            "byteOffset" : 0
        },
        {
            "buffer" : 0,
            "byteLength" : 119796,
            "byteOffset" : 119796
        },
        {
            "buffer" : 0,
            "byteLength" : 79864,
            "byteOffset" : 239592
        },
        {
            "buffer" : 0,
            "byteLength" : 52086,
            "byteOffset" : 319456
        }
    ],
    "buffers" : [
        {
            "byteLength" : 371544,
            "uri" : "data:application/octet-stream;base64,"
        }
    ]
}
